{
  "accessors": [
    {
      "bufferView": 2,
      "componentType": 5126,
      "count": 160,
      "max": [
        1.0,
        1.2502979040145874,
        2.0851175785064697
      ],
      "min": [
        -1.0144511461257935,
        -1.0,
        0.4116522967815399
      ],
      "type": "VEC3"
    },
    {
      "bufferView": 2,
      "byteOffset": 1920,
      "componentType": 5126,
      "count": 160,
      "max": [
        1.0,
        1.0,
        1.0
      ],
      "min": [
        -1.0,
        -1.0,
        -1.0
      ],
      "type": "VEC3"
    },
    {
      "bufferView": 1,
      "componentType": 5126,
      "count": 160,
      "max": [
        0.875,
        1.0
      ],
      "min": [
        0.125,
        0.0
      ],
      "type": "VEC2"
    },
    {
      "bufferView": 0,
      "componentType": 5125,
      "count": 240,
      "type": "SCALAR"
    },
    {
      "bufferView": 2,
      "byteOffset": 3840,
      "componentType": 5126,
      "count": 2681,
      "max": [
        1.0,
        3.227756977081299,
        1.0054808855056763
      ],
      "min": [
        -0.8861597776412964,
        -8.378758430480957,
        -1.0054808855056763
      ],
      "type": "VEC3"
    },
    {
      "bufferView": 2,
      "byteOffset": 36012,
      "componentType": 5126,
      "count": 2681,
      "max": [
        0.9999696612358093,
        1.0,
        1.0
      ],
      "min": [
        -0.9999696612358093,
        -0.9739716053009033,
        -1.0
      ],
      "type": "VEC3"
    },
    {
      "bufferView": 1,
      "byteOffset": 1280,
      "componentType": 5126,
      "count": 2681,
      "max": [
        1.0,
        1.0
      ],
      "min": [
        0.0,
        0.0
      ],
      "type": "VEC2"
    },
    {
      "bufferView": 0,
      "byteOffset": 960,
      "componentType": 5125,
      "count": 5415,
      "type": "SCALAR"
    },
    {
      "bufferView": 2,
      "byteOffset": 68184,
      "componentType": 5126,
      "count": 432,
      "max": [
        5.093990802764893,
        -4.919355869293213,
        3.3750014305114746
      ],
      "min": [
        -0.2900557518005371,
        -6.919355869293213,
        2.1649341583251953
      ],
      "type": "VEC3"
    },
    {
      "bufferView": 2,
      "byteOffset": 73368,
      "componentType": 5126,
      "count": 432,
      "max": [
        1.0,
        1.0,
        1.0
      ],
      "min": [
        -1.0,
        -1.0,
        -1.0
      ],
      "type": "VEC3"
    },
    {
      "bufferView": 1,
      "byteOffset": 22728,
      "componentType": 5126,
      "count": 432,
      "max": [
        0.875,
        1.0
      ],
      "min": [
        0.125,
        0.0
      ],
      "type": "VEC2"
    },
    {
      "bufferView": 0,
      "byteOffset": 22620,
      "componentType": 5125,
      "count": 648,
      "type": "SCALAR"
    },
    {
      "bufferView": 2,
      "byteOffset": 78552,
      "componentType": 5126,
      "count": 432,
      "max": [
        5.093990802764893,
        -4.919355869293213,
        5.040194034576416
      ],
      "min": [
        -0.2900557518005371,
        -6.919355869293213,
        3.8301265239715576
      ],
      "type": "VEC3"
    },
    {
      "bufferView": 2,
      "byteOffset": 83736,
      "componentType": 5126,
      "count": 432,
      "max": [
        1.0,
        1.0,
        1.0
      ],
      "min": [
        -1.0,
        -1.0,
        -1.0
      ],
      "type": "VEC3"
    },
    {
      "bufferView": 1,
      "byteOffset": 26184,
      "componentType": 5126,
      "count": 432,
      "max": [
        0.875,
        1.0
      ],
      "min": [
        0.125,
        0.0
      ],
      "type": "VEC2"
    },
    {
      "bufferView": 0,
      "byteOffset": 25212,
      "componentType": 5125,
      "count": 648,
      "type": "SCALAR"
    },
    {
      "bufferView": 2,
      "byteOffset": 88920,
      "componentType": 5126,
      "count": 432,
      "max": [
        5.093990802764893,
        -4.919355869293213,
        1.71096932888031
      ],
      "min": [
        -0.2900557518005371,
        -6.919355869293213,
        0.500901997089386
      ],
      "type": "VEC3"
    },
    {
      "bufferView": 2,
      "byteOffset": 94104,
      "componentType": 5126,
      "count": 432,
      "max": [
        1.0,
        1.0,
        1.0
      ],
      "min": [
        -1.0,
        -1.0,
        -1.0
      ],
      "type": "VEC3"
    },
    {
      "bufferView": 1,
      "byteOffset": 29640,
      "componentType": 5126,
      "count": 432,
      "max": [
        0.875,
        1.0
      ],
      "min": [
        0.125,
        0.0
      ],
      "type": "VEC2"
    },
    {
      "bufferView": 0,
      "byteOffset": 27804,
      "componentType": 5125,
      "count": 648,
      "type": "SCALAR"
    },
    {
      "bufferView": 2,
      "byteOffset": 99288,
      "componentType": 5126,
      "count": 432,
      "max": [
        5.093990802764893,
        -4.919355869293213,
        0.06202364340424538
      ],
      "min": [
        -0.2900557518005371,
        -6.919355869293213,
        -1.1480436325073242
      ],
      "type": "VEC3"
    },
    {
      "bufferView": 2,
      "byteOffset": 104472,
      "componentType": 5126,
      "count": 432,
      "max": [
        1.0,
        1.0,
        1.0
      ],
      "min": [
        -1.0,
        -1.0,
        -1.0
      ],
      "type": "VEC3"
    },
    {
      "bufferView": 1,
      "byteOffset": 33096,
      "componentType": 5126,
      "count": 432,
      "max": [
        0.875,
        1.0
      ],
      "min": [
        0.125,
        0.0
      ],
      "type": "VEC2"
    },
    {
      "bufferView": 0,
      "byteOffset": 30396,
      "componentType": 5125,
      "count": 648,
      "type": "SCALAR"
    },
    {
      "bufferView": 2,
      "byteOffset": 109656,
      "componentType": 5126,
      "count": 786,
      "max": [
        5.093990802764893,
        -4.919355869293213,
        10.96682071685791
      ],
      "min": [
        -0.2900557518005371,
        -7.888943672180176,
        -2.7733349800109863
      ],
      "type": "VEC3"
    },
    {
      "bufferView": 2,
      "byteOffset": 119088,
      "componentType": 5126,
      "count": 786,
      "max": [
        1.0,
        1.0,
        1.0
      ],
      "min": [
        -1.0,
        -1.0,
        -1.0
      ],
      "type": "VEC3"
    },
    {
      "bufferView": 1,
      "byteOffset": 36552,
      "componentType": 5126,
      "count": 786,
      "max": [
        1.0,
        1.0
      ],
      "min": [
        0.0,
        0.0
      ],
      "type": "VEC2"
    },
    {
      "bufferView": 0,
      "byteOffset": 32988,
      "componentType": 5125,
      "count": 1788,
      "type": "SCALAR"
    },
    {
      "bufferView": 2,
      "byteOffset": 128520,
      "componentType": 5126,
      "count": 432,
      "max": [
        5.093989849090576,
        -4.919355869293213,
        -3.2284598350524902
      ],
      "min": [
        -0.2900567054748535,
        -6.919355869293213,
        -4.4385271072387695
      ],
      "type": "VEC3"
    },
    {
      "bufferView": 2,
      "byteOffset": 133704,
      "componentType": 5126,
      "count": 432,
      "max": [
        1.0,
        1.0,
        1.0
      ],
      "min": [
        -1.0,
        -1.0,
        -1.0
      ],
      "type": "VEC3"
    },
    {
      "bufferView": 1,
      "byteOffset": 42840,
      "componentType": 5126,
      "count": 432,
      "max": [
        0.875,
        1.0
      ],
      "min": [
        0.125,
        0.0
      ],
      "type": "VEC2"
    },
    {
      "bufferView": 0,
      "byteOffset": 40140,
      "componentType": 5125,
      "count": 648,
      "type": "SCALAR"
    },
    {
      "bufferView": 2,
      "byteOffset": 138888,
      "componentType": 5126,
      "count": 1482,
      "max": [
        5.538025856018066,
        -4.481265544891357,
        24.22625732421875
      ],
      "min": [
        -0.5210912227630615,
        -7.810513496398926,
        5.929619312286377
      ],
      "type": "VEC3"
    },
    {
      "bufferView": 2,
      "byteOffset": 156672,
      "componentType": 5126,
      "count": 1482,
      "max": [
        1.0,
        1.0,
        1.0
      ],
      "min": [
        -1.0,
        -1.0,
        -1.0
      ],
      "type": "VEC3"
    },
    {
      "bufferView": 1,
      "byteOffset": 46296,
      "componentType": 5126,
      "count": 1482,
      "max": [
        1.0,
        1.0
      ],
      "min": [
        0.0,
        0.0
      ],
      "type": "VEC2"
    },
    {
      "bufferView": 0,
      "byteOffset": 42732,
      "componentType": 5125,
      "count": 2832,
      "type": "SCALAR"
    },
    {
      "bufferView": 2,
      "byteOffset": 174456,
      "componentType": 5126,
      "count": 1090,
      "max": [
        1.1711575984954834,
        1.0000001192092896,
        8.186555862426758
      ],
      "min": [
        -1.0000001192092896,
        -1.0000001192092896,
        -1.0000001192092896
      ],
      "type": "VEC3"
    },
    {
      "bufferView": 2,
      "byteOffset": 187536,
      "componentType": 5126,
      "count": 1090,
      "max": [
        0.9999149441719055,
        1.0,
        1.0
      ],
      "min": [
        -1.0,
        -1.0,
        -1.0
      ],
      "type": "VEC3"
    },
    {
      "bufferView": 1,
      "byteOffset": 58152,
      "componentType": 5126,
      "count": 1090,
      "max": [
        0.8750001192092896,
        1.0000001192092896
      ],
      "min": [
        0.1250000149011612,
        0.0
      ],
      "type": "VEC2"
    },
    {
      "bufferView": 0,
      "byteOffset": 54060,
      "componentType": 5125,
      "count": 3888,
      "type": "SCALAR"
    }
  ],
  "asset": {
    "extras": {
      "author": "ElOsitoAzul (https://sketchfab.com/ElOsitoAzul)",
      "license": "CC-BY-4.0 (http://creativecommons.org/licenses/by/4.0/)",
      "source": "https://sketchfab.com/3d-models/mini-piano-42e911b4cdfc4b05acaf411c84bd0df6",
      "title": "Mini Piano"
    },
    "generator": "Sketchfab-13.44.0",
    "version": "2.0"
  },
  "bufferViews": [
    {
      "buffer": 0,
      "byteLength": 69612,
      "name": "floatBufferViews",
      "target": 34963
    },
    {
      "buffer": 0,
      "byteLength": 66872,
      "byteOffset": 69612,
      "byteStride": 8,
      "name": "floatBufferViews",
      "target": 34962
    },
    {
      "buffer": 0,
      "byteLength": 200616,
      "byteOffset": 136484,
      "byteStride": 12,
      "name": "floatBufferViews",
      "target": 34962
    }
  ],
  "buffers": [
    {
      "byteLength": 337100,
      "uri": "scene.bin"
    }
  ],
  "materials": [
    {
      "doubleSided": true,
      "name": "Material.002",
      "pbrMetallicRoughness": {
        "baseColorFactor": [
          0.8,
          0.8,
          0.8,
          1.0
        ],
        "metallicFactor": 0.0,
        "roughnessFactor": 0.194215
      }
    },
    {
      "doubleSided": true,
      "name": "Material.003",
      "pbrMetallicRoughness": {
        "baseColorFactor": [
          0.0392785,
          0.216464,
          0.512161,
          1.0
        ],
        "metallicFactor": 0.413223,
        "roughnessFactor": 0.590909
      }
    },
    {
      "doubleSided": true,
      "name": "Material.006",
      "pbrMetallicRoughness": {
        "baseColorFactor": [
          0.46414,
          0.0112808,
          0.00658767,
          1.0
        ],
        "metallicFactor": 0.0,
        "roughnessFactor": 0.5
      }
    },
    {
      "doubleSided": true,
      "name": "Material.007",
      "pbrMetallicRoughness": {
        "baseColorFactor": [
          0.663461,
          0.112124,
          0.00232306,
          1.0
        ],
        "metallicFactor": 0.0,
        "roughnessFactor": 0.5
      }
    },
    {
      "doubleSided": true,
      "name": "Material.008",
      "pbrMetallicRoughness": {
        "baseColorFactor": [
          0.0936088,
          0.0099916,
          0.562961,
          1.0
        ],
        "metallicFactor": 0.0,
        "roughnessFactor": 0.5
      }
    },
    {
      "doubleSided": true,
      "name": "Material.009",
      "pbrMetallicRoughness": {
        "baseColorFactor": [
          0.00193412,
          0.101082,
          0.598395,
          1.0
        ],
        "metallicFactor": 0.0,
        "roughnessFactor": 0.5
      }
    },
    {
      "doubleSided": true,
      "name": "Material.005",
      "pbrMetallicRoughness": {
        "baseColorFactor": [
          0.00618546,
          0.145175,
          0.0,
          1.0
        ],
        "metallicFactor": 0.0,
        "roughnessFactor": 0.5
      }
    },
    {
      "doubleSided": true,
      "name": "Material.011",
      "pbrMetallicRoughness": {
        "baseColorFactor": [
          0.545716,
          0.402158,
          0.0112277,
          1.0
        ],
        "metallicFactor": 0.0,
        "roughnessFactor": 0.5
      }
    },
    {
      "doubleSided": true,
      "name": "Material.012",
      "pbrMetallicRoughness": {
        "baseColorFactor": [
          0.00866875,
          0.00866875,
          0.00866875,
          1.0
        ],
        "metallicFactor": 0.0,
        "roughnessFactor": 0.5
      }
    },
    {
      "doubleSided": true,
      "name": "Material.001",
      "pbrMetallicRoughness": {
        "baseColorFactor": [
          0.0,
          0.0,
          0.0,
          1.0
        ],
        "metallicFactor": 0.677686,
        "roughnessFactor": 0.194215
      }
    }
  ],
  "meshes": [
    {
      "name": "Object_0",
      "primitives": [
        {
          "attributes": {
            "NORMAL": 1,
            "POSITION": 0,
            "TEXCOORD_0": 2
          },
          "indices": 3,
          "material": 0,
          "mode": 4
        }
      ]
    },
    {
      "name": "Object_1",
      "primitives": [
        {
          "attributes": {
            "NORMAL": 5,
            "POSITION": 4,
            "TEXCOORD_0": 6
          },
          "indices": 7,
          "material": 1,
          "mode": 4
        }
      ]
    },
    {
      "name": "Object_2",
      "primitives": [
        {
          "attributes": {
            "NORMAL": 9,
            "POSITION": 8,
            "TEXCOORD_0": 10
          },
          "indices": 11,
          "material": 2,
          "mode": 4
        }
      ]
    },
    {
      "name": "Object_3",
      "primitives": [
        {
          "attributes": {
            "NORMAL": 13,
            "POSITION": 12,
            "TEXCOORD_0": 14
          },
          "indices": 15,
          "material": 3,
          "mode": 4
        }
      ]
    },
    {
      "name": "Object_4",
      "primitives": [
        {
          "attributes": {
            "NORMAL": 17,
            "POSITION": 16,
            "TEXCOORD_0": 18
          },
          "indices": 19,
          "material": 4,
          "mode": 4
        }
      ]
    },
    {
      "name": "Object_5",
      "primitives": [
        {
          "attributes": {
            "NORMAL": 21,
            "POSITION": 20,
            "TEXCOORD_0": 22
          },
          "indices": 23,
          "material": 5,
          "mode": 4
        }
      ]
    },
    {
      "name": "Object_6",
      "primitives": [
        {
          "attributes": {
            "NORMAL": 25,
            "POSITION": 24,
            "TEXCOORD_0": 26
          },
          "indices": 27,
          "material": 6,
          "mode": 4
        }
      ]
    },
    {
      "name": "Object_7",
      "primitives": [
        {
          "attributes": {
            "NORMAL": 29,
            "POSITION": 28,
            "TEXCOORD_0": 30
          },
          "indices": 31,
          "material": 7,
          "mode": 4
        }
      ]
    },
    {
      "name": "Object_8",
      "primitives": [
        {
          "attributes": {
            "NORMAL": 33,
            "POSITION": 32,
            "TEXCOORD_0": 34
          },
          "indices": 35,
          "material": 8,
          "mode": 4
        }
      ]
    },
    {
      "name": "Object_9",
      "primitives": [
        {
          "attributes": {
            "NORMAL": 37,
            "POSITION": 36,
            "TEXCOORD_0": 38
          },
          "indices": 39,
          "material": 9,
          "mode": 4
        }
      ]
    }
  ],
  "nodes": [
    {
      "children": [
        1
      ],
      "matrix": [
        1.0,
        0.0,
        0.0,
        0.0,
        0.0,
        2.220446049250313e-16,
        -1.0,
        0.0,
        0.0,
        1.0,
        2.220446049250313e-16,
        0.0,
        0.0,
        0.0,
        0.0,
        1.0
      ],
      "name": "Sketchfab_model"
    },
    {
      "children": [
        2
      ],
      "name": "root"
    },
    {
      "children": [
        3,
        5,
        7,
        15
      ],
      "matrix": [
        1.0,
        0.0,
        0.0,
        0.0,
        0.0,
        2.220446049250313e-16,
        1.0,
        0.0,
        0.0,
        -1.0,
        2.220446049250313e-16,
        0.0,
        0.0,
        0.0,
        0.0,
        1.0
      ],
      "name": "GLTF_SceneRootNode"
    },
    {
      "children": [
        4
      ],
      "matrix": [
        -0.5894178994753223,
        0.5215705077387951,
        0.09099710712120497,
        -0.0,
        0.07731254454797734,
        0.08870944607729807,
        -0.007679730084954401,
        0.0,
        0.17426078771691014,
        -0.036195170981117936,
        1.336204688368563,
        0.0,
        -0.04106104373931885,
        0.34988927841186523,
        -1.724139928817749,
        1.0
      ],
      "name": "Cube.004_1"
    },
    {
      "mesh": 0,
      "name": "Object_4"
    },
    {
      "children": [
        6
      ],
      "matrix": [
        0.838018228183091,
        -0.741554664622329,
        -0.12937719493653052,
        0.0,
        -0.04961926565130345,
        -0.05693380804402188,
        0.004928858174874664,
        -0.0,
        0.1562156565872653,
        -0.03244707242623686,
        1.1978374220801347,
        0.0,
        -0.12893444299697876,
        0.31776267290115356,
        -0.003271341323852539,
        1.0
      ],
      "name": "Cube_2"
    },
    {
      "mesh": 1,
      "name": "Object_6"
    },
    {
      "children": [
        8,
        9,
        10,
        11,
        12,
        13,
        14
      ],
      "matrix": [
        0.0278188170605717,
        -0.031062876216027026,
        -0.004469417008771642,
        0.0,
        0.04668670780576154,
        0.04252129341779019,
        -0.004936816217871862,
        0.0,
        0.009645805334554317,
        -0.002003501193895493,
        0.07396253313121562,
        0.0,
        -0.2074611634016037,
        1.6091465950012207,
        -0.7104943990707397,
        1.0
      ],
      "name": "Cube.012_3"
    },
    {
      "mesh": 2,
      "name": "Object_8"
    },
    {
      "mesh": 3,
      "name": "Object_9"
    },
    {
      "mesh": 4,
      "name": "Object_10"
    },
    {
      "mesh": 5,
      "name": "Object_11"
    },
    {
      "mesh": 6,
      "name": "Object_12"
    },
    {
      "mesh": 7,
      "name": "Object_13"
    },
    {
      "mesh": 8,
      "name": "Object_14"
    },
    {
      "children": [
        16
      ],
      "matrix": [
        0.36116207501304004,
        -0.31958901656741223,
        -0.05575789954348722,
        0.0,
        0.0665201059506724,
        0.07632605790416595,
        -0.006607678765594299,
        0.0,
        0.020473139460528225,
        -0.00425241267988474,
        0.15698485752986532,
        0.0,
        -0.0030147433280944824,
        0.7431971430778503,
        -0.5893433094024658,
        1.0
      ],
      "name": "Cube.006_4"
    },
    {
      "mesh": 9,
      "name": "Object_16"
    }
  ],
  "scene": 0,
  "scenes": [
    {
      "name": "Sketchfab_Scene",
      "nodes": [
        0
      ]
    }
  ]
}
